<svg width="704" height="258" viewBox="0 0 704 258" fill="none" xmlns="http://www.w3.org/2000/svg">
<g clip-path="url(#clip0_0_1)">
<path d="M109.388 211.069C121.189 215.018 133.957 208.653 137.907 196.852C141.856 185.052 135.491 172.284 123.69 168.334C111.889 164.385 7.9335 140.234 3.98439 152.034C0.0352769 163.835 97.5875 207.12 109.388 211.069Z" fill="#91CC04"/>
<path d="M123.69 168.334C116.201 165.828 71.6036 155.187 39.0003 150.76C42.3181 154.728 75.5683 191.224 85.2252 200.869C97.007 206.169 106.244 210.016 109.389 211.068C121.189 215.017 133.957 208.652 137.907 196.851C141.856 185.052 135.491 172.284 123.69 168.334Z" fill="#85BB04"/>
<path d="M148.597 211.069C136.797 215.018 124.029 208.653 120.079 196.853C116.13 185.052 122.495 172.284 134.296 168.334C146.097 164.385 250.052 140.233 254.002 152.034C257.951 163.835 160.398 207.12 148.597 211.069Z" fill="#9CDD05"/>
<path d="M218.986 150.76C186.382 155.188 141.785 165.828 134.297 168.334C122.496 172.284 116.131 185.052 120.08 196.852C124.029 208.652 136.797 215.017 148.598 211.069C151.743 210.016 160.979 206.169 172.762 200.87C182.418 191.224 215.668 154.728 218.986 150.76Z" fill="#91CC04"/>
<path d="M100.029 176.659C105.404 187.882 118.859 192.623 130.083 187.249C141.306 181.873 146.047 168.418 140.672 157.195C135.297 145.971 80.3085 54.5035 69.0855 59.8782C57.8625 65.2529 94.6537 165.435 100.029 176.659Z" fill="#85BB04"/>
<path d="M160.79 176.659C155.415 187.882 141.959 192.623 130.736 187.249C119.512 181.873 114.772 168.418 120.146 157.195C125.522 145.971 180.51 54.5035 191.733 59.8782C202.957 65.2534 166.164 165.435 160.79 176.659Z" fill="#85BB04"/>
<path d="M140.672 157.195C137.618 150.818 118.548 118.537 100.589 92.8322C100.302 94.6089 93.6212 145.658 92.7414 158.227C96.1302 167.383 98.8432 174.184 100.028 176.659C105.404 187.882 118.859 192.623 130.082 187.249C141.306 181.873 146.047 168.418 140.672 157.195Z" fill="#79AB03"/>
<path d="M168.134 158.069C167.41 145.242 161.48 93.8717 161.135 91.5391C142.917 117.442 123.251 150.71 120.146 157.194C114.771 168.418 119.512 181.873 130.735 187.248C141.959 192.623 155.414 187.881 160.789 176.658C161.981 174.17 164.719 167.304 168.134 158.069Z" fill="#79AB03"/>
<path d="M107.878 164.533C107.777 176.977 117.782 187.147 130.226 187.248C142.669 187.349 152.839 177.344 152.94 164.901C153.041 152.457 143.82 46.1321 131.377 46.0308C118.934 45.9295 107.98 152.089 107.878 164.533Z" fill="#91CC04"/>
<path d="M106.154 199.535C115.663 207.562 129.879 206.361 137.906 196.853C145.933 187.344 144.732 173.128 135.224 165.101C125.715 157.074 38.0227 96.2441 29.9955 105.753C21.9683 115.262 96.6457 191.508 106.154 199.535Z" fill="#9CDD05"/>
<path d="M151.831 199.535C142.323 207.562 128.107 206.361 120.08 196.853C112.053 187.344 113.253 173.128 122.762 165.101C132.271 157.074 219.963 96.2441 227.99 105.753C236.017 115.262 161.34 191.508 151.831 199.535Z" fill="#C2FB3B"/>
<path d="M168.762 160.639C167.15 159.244 167.118 156.743 168.572 155.183C169.435 154.259 170.305 153.322 171.181 152.374C172.629 150.809 175.072 150.713 176.637 152.162C178.202 153.609 178.297 156.052 176.849 157.617C175.965 158.572 175.088 159.517 174.219 160.45C173.458 161.264 170.813 162.415 168.762 160.639Z" fill="#9CDD05"/>
<path d="M138.922 190.226C137.491 188.644 137.752 186.162 139.381 184.786C141.467 183.025 150.006 174.686 160.612 163.606C162.086 162.066 164.529 162.013 166.07 163.487C167.61 164.961 167.663 167.405 166.189 168.945C155.973 179.616 146.904 188.539 144.362 190.686C143.637 191.297 141.089 192.621 138.922 190.226Z" fill="#9CDD05"/>
<path d="M257.662 150.809C255.995 145.828 249.212 144.218 234.249 145.247C225.82 145.828 217.651 146.772 205.396 148.876C213.286 139.715 219.523 131.872 223.978 125.501C232.259 113.657 234.277 107.215 230.94 103.263C229.609 101.686 227.633 100.887 225.068 100.887C217.764 100.887 202.515 108.451 185.84 118.279C190.114 104.656 193.36 92.8538 195.322 83.7683C198.997 66.7408 198.441 58.8109 193.401 56.3972C188.497 54.0485 182.264 58.2253 171.89 70.8129C170.535 72.4577 170.769 74.891 172.415 76.247C174.058 77.6025 176.493 77.3692 177.849 75.7225C184.81 67.277 188.334 64.6688 189.835 63.8651C190.448 66.9928 190.505 79.3264 175.784 124.363C168.701 128.749 161.596 133.345 154.938 137.77C154.327 131.171 153.398 121.928 152.159 111.709C159.031 101.195 165.321 92.1035 170.858 84.6804C172.134 82.9717 171.782 80.5524 170.073 79.278C168.365 78.0031 165.946 78.3549 164.671 80.0631C160.401 85.7845 155.702 92.4688 150.648 100.003C149.789 93.7472 148.826 87.3743 147.757 81.2201C142.141 48.8769 137.16 42.2183 131.409 42.1714C131.389 42.1714 131.369 42.1714 131.349 42.1714C125.515 42.1714 120.343 49.1177 114.092 82.7172C112.96 88.8069 111.925 95.0861 110.993 101.234C103.006 89.2786 95.7986 79.2826 89.9195 72.0253C78.9717 58.5126 72.4516 53.987 67.4181 56.3972C62.2511 58.8718 61.7562 66.7469 65.6539 84.4864C68.1221 95.7205 72.0661 109.105 75.6499 120.404C63.858 113.319 54.1593 108.097 46.822 104.885C36.0011 100.145 30.0872 99.6615 27.0456 103.264C23.7098 107.216 25.7264 113.659 34.0081 125.502C38.4717 131.886 44.7222 139.746 52.634 148.928C40.8194 146.968 30.9449 145.719 23.2084 145.213C8.60066 144.259 1.97228 145.879 0.322995 150.81C-1.51072 156.291 4.77249 161.703 11.161 166.274C17.2976 170.665 26.2349 175.988 37.7249 182.093C38.3019 182.4 41.2356 183.486 42.9454 180.495C44.0036 178.644 43.2306 176.275 41.348 175.275C15.8257 161.713 9.65584 155.549 8.16831 153.432C10.9751 152.519 21.7546 151.089 60.7666 158.179C78.9631 178.501 98.9233 198.483 103.663 202.484C107.359 205.604 111.781 207.605 116.443 208.363C114.482 208.355 112.515 208.045 110.612 207.408C105.782 205.792 86.5343 197.532 66.1599 187.754C64.2385 186.833 61.9321 187.641 61.0094 189.564C60.0873 191.486 60.8971 193.792 62.8195 194.714C84.2733 205.01 103.247 213.084 108.162 214.73C110.89 215.642 122.559 217.198 129.001 212.958C137.987 217.326 147.054 215.656 149.822 214.73C155.938 212.683 183.721 200.658 208.943 187.942C223.462 180.622 234.915 174.217 242.981 168.905C255.05 160.956 259.303 155.713 257.662 150.809ZM224.615 108.625C223.904 111.596 219.286 121.969 191.371 153.137C173.225 173.398 153.846 192.782 149.342 196.585C145.978 199.425 141.703 200.99 137.308 200.99C131.79 200.99 126.586 198.574 123.03 194.362C119.813 190.551 118.272 185.716 118.692 180.746C119.111 175.776 121.441 171.268 125.252 168.05C129.443 164.512 150.673 149.424 172.783 135.39C209.178 112.288 220.992 108.881 224.615 108.625ZM131.341 50.447C132.799 52.4637 136.386 59.7844 140.676 85.6328C144.35 107.777 146.691 132.001 147.628 142.676C140.323 147.63 133.877 152.149 129.037 155.624C124.608 152.435 119.232 148.675 113.321 144.653C114.303 134.995 117.018 110.17 121.114 87.2483C125.978 60.0303 129.816 52.4848 131.341 50.447ZM70.9984 63.8555C73.8172 65.3375 83.464 73.0215 109.34 112.749C107.866 123.579 106.762 133.26 106.068 139.767C99.5391 135.413 92.6175 130.915 85.7805 126.629C80.4436 110.455 76.2995 96.2299 73.794 85.4736C70.4612 71.1697 70.6391 65.7607 70.9984 63.8555ZM66.6144 153.137C38.6199 121.88 34.0555 111.537 33.3641 108.599C36.119 108.777 45.5682 111.117 74.4834 128.72C91.4378 139.043 110.235 151.7 122.48 160.426C121.451 161.203 120.695 161.792 120.271 162.151C98.6245 180.527 117.171 200.072 117.461 200.705C114.245 200.141 111.198 198.741 108.643 196.585C104.14 192.782 84.7616 173.398 66.6144 153.137ZM202.474 182.549C178.129 194.678 152.963 205.538 147.372 207.409C145.418 208.063 143.43 208.37 141.474 208.372C146.183 207.615 150.638 205.594 154.322 202.485C159.062 198.483 179.022 178.501 197.218 158.179C236.25 151.084 247.022 152.52 249.821 153.434C248.097 155.907 240.04 163.834 202.474 182.549Z" fill="black"/>
<path d="M55.8353 182.71C54.4163 182.004 53.0004 181.294 51.5914 180.58C49.6887 179.619 47.3662 180.38 46.4037 182.282C45.4413 184.184 46.2032 186.507 48.1054 187.47C49.5294 188.19 50.9605 188.908 52.3941 189.622C52.9464 189.897 56.1629 190.82 57.5703 187.887C58.4924 185.965 57.7436 183.66 55.8353 182.71Z" fill="black"/>
</g>
<path d="M371.356 86C372.596 86 373.216 86.62 373.216 87.86V91.58C373.216 92.82 372.596 93.44 371.356 93.44C368.628 93.44 365.941 94.3907 363.296 96.292C360.733 98.1933 358.253 101.211 355.856 105.344L336.76 137.708C336.347 138.287 336.14 139.072 336.14 140.064V159.78C336.14 163.087 336.719 165.897 337.876 168.212C339.116 170.444 341.307 171.56 344.448 171.56H345.316C346.556 171.56 347.176 172.18 347.176 173.42V177.14C347.176 178.38 346.556 179 345.316 179H307.124C305.884 179 305.264 178.38 305.264 177.14V173.42C305.264 172.18 305.884 171.56 307.124 171.56H307.868C311.009 171.56 313.2 170.444 314.44 168.212C315.68 165.897 316.3 163.087 316.3 159.78V140.684C316.3 139.94 316.052 139.196 315.556 138.452L293.236 105.344C290.425 101.211 288.028 98.1933 286.044 96.292C284.06 94.3907 281.745 93.44 279.1 93.44C277.86 93.44 277.24 92.82 277.24 91.58V87.86C277.24 86.62 277.86 86 279.1 86H322.128C323.368 86 323.988 86.62 323.988 87.86V91.58C323.988 92.82 323.368 93.44 322.128 93.44C319.896 93.44 317.871 93.8947 316.052 94.804C314.316 95.6307 313.448 97.1187 313.448 99.268C313.448 101.004 314.151 103.029 315.556 105.344L330.064 128.532L343.456 105.344C345.275 102.037 346.184 99.4333 346.184 97.532C346.184 94.804 344.283 93.44 340.48 93.44C339.24 93.44 338.62 92.82 338.62 91.58V87.86C338.62 86.62 339.24 86 340.48 86H371.356ZM445.239 159.78C446.561 163.169 447.843 165.98 449.083 168.212C450.323 170.444 452.1 171.56 454.415 171.56C455.241 171.56 455.737 171.725 455.903 172.056C456.151 172.304 456.275 172.759 456.275 173.42V177.14C456.275 178.38 455.655 179 454.415 179H416.347C415.107 179 414.487 178.38 414.487 177.14V173.42C414.487 172.759 414.569 172.304 414.735 172.056C414.983 171.725 415.52 171.56 416.347 171.56C418.579 171.56 420.728 170.733 422.795 169.08C424.944 167.427 426.019 165.401 426.019 163.004C426.019 162.425 425.936 161.888 425.771 161.392C425.688 160.896 425.564 160.359 425.399 159.78L421.555 149.24H387.579L383.859 159.78C383.693 160.359 383.569 160.937 383.487 161.516C383.404 162.012 383.363 162.467 383.363 162.88C383.363 165.525 384.437 167.633 386.587 169.204C388.736 170.775 390.885 171.56 393.035 171.56C393.944 171.56 394.481 171.725 394.647 172.056C394.812 172.304 394.895 172.759 394.895 173.42V177.14C394.895 178.38 394.275 179 393.035 179H362.159C360.919 179 360.299 178.38 360.299 177.14V173.42C360.299 172.759 360.381 172.304 360.547 172.056C360.795 171.725 361.332 171.56 362.159 171.56C364.639 171.56 366.499 170.403 367.739 168.088C369.061 165.773 370.301 163.004 371.459 159.78L398.119 87.612C398.449 86.5373 399.152 86 400.227 86H415.231C416.305 86 417.008 86.496 417.339 87.488L445.239 159.78ZM391.423 138.452H417.587L404.195 102.244L391.423 138.452ZM542.987 86C544.227 86 544.847 86.62 544.847 87.86V91.58C544.847 92.82 544.227 93.44 542.987 93.44H542.119C539.06 93.44 536.911 94.5973 535.671 96.912C534.431 99.144 533.811 101.913 533.811 105.22V144.9C533.811 156.308 530.959 165.112 525.255 171.312C519.633 177.512 510.664 180.612 498.347 180.612C486.112 180.612 476.647 177.553 469.951 171.436C463.337 165.319 460.031 156.887 460.031 146.14V105.22C460.031 101.913 459.411 99.144 458.171 96.912C457.013 94.5973 454.864 93.44 451.723 93.44H450.855C449.615 93.44 448.995 92.82 448.995 91.58V87.86C448.995 86.62 449.615 86 450.855 86H488.923C490.163 86 490.783 86.62 490.783 87.86V91.58C490.783 92.82 490.163 93.44 488.923 93.44H488.179C485.12 93.44 482.971 94.5973 481.731 96.912C480.491 99.144 479.871 101.913 479.871 105.22V143.66C479.871 147.132 480.119 150.439 480.615 153.58C481.111 156.721 482.103 159.491 483.591 161.888C485.161 164.285 487.393 166.187 490.287 167.592C493.263 168.997 497.148 169.7 501.943 169.7C506.737 169.7 510.54 168.584 513.351 166.352C516.161 164.037 518.187 160.937 519.427 157.052C520.667 153.084 521.287 148.62 521.287 143.66V105.22C521.287 101.913 520.667 99.144 519.427 96.912C518.269 94.5973 516.12 93.44 512.979 93.44H512.235C510.995 93.44 510.375 92.82 510.375 91.58V87.86C510.375 86.62 510.995 86 512.235 86H542.987Z" fill="white"/>
<defs>
<clipPath id="clip0_0_1">
<rect width="258" height="258" fill="white"/>
</clipPath>
</defs>
</svg>
